<svg width="18" height="18" viewBox="0 0 18 18" fill="none" xmlns="http://www.w3.org/2000/svg">
<path d="M6.49935 6.50002H6.50768M11.4993 11.5H11.5077M12.3327 5.66669L5.66602 12.3334M5.11082 2.18227C5.78068 2.12881 6.41661 1.8654 6.92807 1.42954C8.12162 0.412404 9.87708 0.412404 11.0706 1.42954C11.5821 1.8654 12.218 2.12881 12.8879 2.18227C14.4511 2.30701 15.6924 3.54831 15.8171 5.11149C15.8706 5.78135 16.134 6.41728 16.5698 6.92874C17.587 8.12229 17.587 9.87775 16.5698 11.0713C16.134 11.5828 15.8706 12.2187 15.8171 12.8885C15.6924 14.4517 14.4511 15.693 12.8879 15.8178C12.218 15.8712 11.5821 16.1346 11.0706 16.5705C9.87708 17.5876 8.12162 17.5876 6.92807 16.5705C6.41661 16.1346 5.78068 15.8712 5.11082 15.8178C3.54764 15.693 2.30634 14.4517 2.18159 12.8885C2.12814 12.2187 1.86473 11.5828 1.42887 11.0713C0.411732 9.87775 0.411732 8.12229 1.42887 6.92874C1.86473 6.41728 2.12814 5.78136 2.1816 5.11149C2.30634 3.54831 3.54764 2.30701 5.11082 2.18227ZM6.91602 6.50002C6.91602 6.73014 6.72947 6.91669 6.49935 6.91669C6.26923 6.91669 6.08268 6.73014 6.08268 6.50002C6.08268 6.2699 6.26923 6.08335 6.49935 6.08335C6.72947 6.08335 6.91602 6.2699 6.91602 6.50002ZM11.916 11.5C11.916 11.7301 11.7295 11.9167 11.4993 11.9167C11.2692 11.9167 11.0827 11.7301 11.0827 11.5C11.0827 11.2699 11.2692 11.0834 11.4993 11.0834C11.7295 11.0834 11.916 11.2699 11.916 11.5Z" stroke="#4A4F59" stroke-opacity="0.75" stroke-width="1.2" stroke-linecap="round" stroke-linejoin="round"/>
</svg>
