<svg width="20" height="20" viewBox="0 0 20 20" fill="none" xmlns="http://www.w3.org/2000/svg">
<g clip-path="url(#clip0_3720_285)">
<path d="M14.9993 1.66663L18.3327 4.99996M1.66602 18.3333L2.72968 14.4332C2.79908 14.1787 2.83378 14.0515 2.88704 13.9329C2.93434 13.8275 2.99245 13.7274 3.06045 13.6341C3.13703 13.5289 3.23027 13.4357 3.41677 13.2492L12.0279 4.63803C12.193 4.47302 12.2755 4.39052 12.3706 4.35961C12.4543 4.33242 12.5444 4.33242 12.6281 4.35961C12.7232 4.39052 12.8057 4.47302 12.9708 4.63803L15.3613 7.02855C15.5263 7.19356 15.6088 7.27607 15.6397 7.3712C15.6669 7.45489 15.6669 7.54503 15.6397 7.62872C15.6088 7.72385 15.5263 7.80636 15.3613 7.97136L6.7501 16.5825C6.56361 16.769 6.47036 16.8623 6.36525 16.9389C6.27192 17.0069 6.17178 17.065 6.06644 17.1123C5.9478 17.1655 5.82058 17.2002 5.56613 17.2696L1.66602 18.3333Z" stroke="#4A4F59" stroke-opacity="0.75" stroke-width="1.5" stroke-linecap="round" stroke-linejoin="round"/>
</g>
<defs>
<clipPath id="clip0_3720_285">
<rect width="20" height="20" fill="white"/>
</clipPath>
</defs>
</svg>
