<svg width="20" height="20" viewBox="0 0 20 20" fill="none" xmlns="http://www.w3.org/2000/svg">
<g clip-path="url(#clip0_3720_262)">
<path d="M4.99935 12.5L6.66602 14.1667L10.416 10.4167M6.66602 6.66669V4.33335C6.66602 3.39993 6.66602 2.93322 6.84767 2.5767C7.00746 2.2631 7.26243 2.00813 7.57603 1.84834C7.93255 1.66669 8.39926 1.66669 9.33268 1.66669H15.666C16.5994 1.66669 17.0661 1.66669 17.4227 1.84834C17.7363 2.00813 17.9912 2.2631 18.151 2.5767C18.3327 2.93322 18.3327 3.39993 18.3327 4.33335V10.6667C18.3327 11.6001 18.3327 12.0668 18.151 12.4233C17.9912 12.7369 17.7363 12.9919 17.4227 13.1517C17.0661 13.3334 16.5994 13.3334 15.666 13.3334H13.3327M4.33268 18.3334H10.666C11.5994 18.3334 12.0661 18.3334 12.4227 18.1517C12.7363 17.9919 12.9912 17.7369 13.151 17.4233C13.3327 17.0668 13.3327 16.6001 13.3327 15.6667V9.33335C13.3327 8.39993 13.3327 7.93322 13.151 7.5767C12.9912 7.2631 12.7363 7.00813 12.4227 6.84834C12.0661 6.66669 11.5994 6.66669 10.666 6.66669H4.33268C3.39926 6.66669 2.93255 6.66669 2.57603 6.84834C2.26243 7.00813 2.00746 7.2631 1.84767 7.5767C1.66602 7.93322 1.66602 8.39993 1.66602 9.33335V15.6667C1.66602 16.6001 1.66602 17.0668 1.84767 17.4233C2.00746 17.7369 2.26243 17.9919 2.57603 18.1517C2.93255 18.3334 3.39926 18.3334 4.33268 18.3334Z" stroke="#4A4F59" stroke-opacity="0.75" stroke-width="1.39167" stroke-linecap="round" stroke-linejoin="round"/>
</g>
<defs>
<clipPath id="clip0_3720_262">
<rect width="20" height="20" fill="white"/>
</clipPath>
</defs>
</svg>
