<svg width="20" height="20" viewBox="0 0 20 20" fill="none" xmlns="http://www.w3.org/2000/svg">
<g clip-path="url(#clip0_3720_272)">
<path d="M9.99935 1.66669C11.0937 1.66669 12.1773 1.88224 13.1884 2.30102C14.1994 2.71981 15.1181 3.33364 15.8919 4.10747C16.6657 4.88129 17.2796 5.79995 17.6983 6.811C18.1171 7.82204 18.3327 8.90568 18.3327 10M9.99935 1.66669V10M9.99935 1.66669C5.39698 1.66669 1.66602 5.39765 1.66602 10C1.66602 14.6024 5.39698 18.3334 9.99935 18.3334C14.6017 18.3334 18.3327 14.6024 18.3327 10M9.99935 1.66669C14.6017 1.66669 18.3327 5.39765 18.3327 10M18.3327 10L9.99935 10M18.3327 10C18.3327 11.3151 18.0214 12.6115 17.4244 13.7833C16.8274 14.955 15.9615 15.9688 14.8976 16.7418L9.99935 10" stroke="#4A4F59" stroke-opacity="0.75" stroke-width="1.39167" stroke-linecap="round" stroke-linejoin="round"/>
</g>
<defs>
<clipPath id="clip0_3720_272">
<rect width="20" height="20" fill="white"/>
</clipPath>
</defs>
</svg>
